<svg width="257" height="190" viewBox="0 0 257 190" fill="none" xmlns="http://www.w3.org/2000/svg">
    <path d="M186 36L209.5 11.5" stroke="#E1E4E8" stroke-linecap="round" stroke-linejoin="round"/>
    <path d="M157 46L174 12" stroke="#E1E4E8" stroke-linecap="round" stroke-linejoin="round"/>
    <path d="M99 177L116 143" stroke="#E1E4E8" stroke-linecap="round" stroke-linejoin="round"/>
    <rect x="71" y="39" width="116" height="116" rx="24" fill="url(#paint0_radial_7146_14249)"/>
    <circle opacity="0.13" cx="129" cy="97" r="58" stroke="white" stroke-width="2" stroke-linecap="round" stroke-linejoin="round"/>
    <circle opacity="0.05" cx="129" cy="97" r="28" stroke="white" stroke-linecap="round" stroke-linejoin="round"/>
    <circle opacity="0.1" cx="129" cy="97" r="45" stroke="white" stroke-width="2" stroke-linecap="round" stroke-linejoin="round"/>
    <path d="M222 92.2386L203 92.2386" stroke="#FFAD00" stroke-width="3" stroke-linecap="round" stroke-linejoin="round"/>
    <rect x="99" y="75" width="58" height="6" rx="3" fill="white"/>
    <rect x="99" y="94" width="58" height="6" rx="3" fill="white"/>
    <rect x="99" y="113" width="58" height="6" rx="3" fill="white"/>
    <circle cx="118" cy="97" r="8" fill="white"/>
    <circle cx="138" cy="78" r="8" fill="white"/>
    <circle cx="149" cy="116" r="8" fill="white"/>
    <circle cx="191" cy="52" r="4" stroke="#FF4C00" stroke-width="2" stroke-linecap="round" stroke-linejoin="round"/>
    <circle cx="151.5" cy="16.5" r="2.5" stroke="#FF4A9E" stroke-linecap="round" stroke-linejoin="round"/>
    <circle cx="93.5" cy="41.5" r="5.5" stroke="#FFAD00" stroke-width="2" stroke-linecap="round" stroke-linejoin="round"/>
    <circle cx="58.5" cy="48.5" r="3.5" stroke="#3776FF" stroke-width="2" stroke-linecap="round" stroke-linejoin="round"/>
    <circle cx="207.5" cy="146.5" r="4.5" stroke="#3776FF" stroke-width="2" stroke-linecap="round" stroke-linejoin="round"/>
    <circle cx="48.5" cy="107.5" r="1.5" stroke="#FF4C00" stroke-width="2" stroke-linecap="round" stroke-linejoin="round"/>
    <circle cx="79" cy="149" r="4" stroke="#FF4C00" stroke-width="4" stroke-linecap="round" stroke-linejoin="round"/>
    <path d="M74.544 93.3533L34.0005 88.6389" stroke="#E1E4E8" stroke-width="3" stroke-linecap="round" stroke-linejoin="round"/>
    <path d="M75 59L62 51" stroke="#3776FF" stroke-width="2" stroke-linecap="round" stroke-linejoin="round"/>
    <path d="M130 38L130 31" stroke="#E1E4E8" stroke-width="2" stroke-linecap="round" stroke-linejoin="round"/>
    <path d="M130 22L130 1" stroke="#E1E4E8" stroke-width="2" stroke-linecap="round" stroke-linejoin="round"/>
    <path d="M180 175L161 148" stroke="#FF4A9E" stroke-width="5" stroke-linecap="round" stroke-linejoin="round"/>
    <path d="M77 24L63 4" stroke="#3776FF" stroke-width="5" stroke-linecap="round" stroke-linejoin="round"/>
    <path d="M46 142L11 163" stroke="#E1E4E8" stroke-width="3" stroke-linecap="round" stroke-linejoin="round"/>
    <path d="M194 154L184 146" stroke="#E1E4E8" stroke-width="2" stroke-linecap="round" stroke-linejoin="round"/>
    <path d="M235 188L204 163" stroke="#E1E4E8" stroke-width="2" stroke-linecap="round" stroke-linejoin="round"/>
    <circle cx="7" cy="166" r="5" stroke="#E1E4E8" stroke-width="3" stroke-linecap="round" stroke-linejoin="round"/>
    <circle cx="246" cy="31" r="5" stroke="#E1E4E8" stroke-width="4" stroke-linecap="round" stroke-linejoin="round"/>
    <circle cx="143" cy="159" r="3" stroke="#FF7B2B" stroke-width="2" stroke-linecap="round" stroke-linejoin="round"/>
    <circle cx="183.5" cy="180.5" r="5.5" stroke="#FF4A9E" stroke-width="5" stroke-linecap="round" stroke-linejoin="round"/>
    <path d="M35 36L21.5 27.5" stroke="#E1E4E8" stroke-linecap="round" stroke-linejoin="round"/>
    <circle cx="18.5" cy="25.5" r="3.5" stroke="#E1E4E8" stroke-linecap="round" stroke-linejoin="round"/>
    <circle cx="211.5" cy="9.5" r="2.5" stroke="#E1E4E8" stroke-linecap="round" stroke-linejoin="round"/>
    <circle cx="227" cy="92" r="5" stroke="#FFAD00" stroke-width="3" stroke-linecap="round" stroke-linejoin="round"/>
    <circle cx="28" cy="88" r="5" stroke="#E1E4E8" stroke-width="3" stroke-linecap="round" stroke-linejoin="round"/>
    <defs>
        <radialGradient id="paint0_radial_7146_14249" cx="0" cy="0" r="1" gradientUnits="userSpaceOnUse" gradientTransform="translate(129 97) rotate(90) scale(58)">
            <stop offset="0.255208" stop-color="#3776FF"/>
            <stop offset="1" stop-color="#0029FF"/>
        </radialGradient>
    </defs>
</svg>
